<?xml version="1.0" encoding="utf-8"?>
<!-- Generator: Adobe Illustrator 28.0.0, SVG Export Plug-In . SVG Version: 6.00 Build 0)  -->
<svg version="1.1" id="Layer_1" xmlns="http://www.w3.org/2000/svg" xmlns:xlink="http://www.w3.org/1999/xlink" x="0px" y="0px"
	 viewBox="0 0 549.01 157.78" style="enable-background:new 0 0 549.01 157.78;" xml:space="preserve">
<style type="text/css">
	.st0{fill:#BC2A78;}
	.st1{fill:#003C56;}
	.st2{fill:#FFFFFF;}
</style>
<path class="st0" d="M177.67,108.52c0,0-19.36-1.13-39.41-11.91c7.22-29.3-6.96-60.58-35.33-73.89
	C70.63,7.58,32.17,21.5,17.03,53.79C1.89,86.1,15.8,124.56,48.1,139.7c28.72,13.46,62.31,3.93,80.05-21.06
	C153.04,118.09,177.67,108.52,177.67,108.52z"/>
<path class="st1" d="M91.35,47.35c-18.7-8.76-40.97-0.71-49.74,17.99c-5.55,11.85-4.35,25.13,2.03,35.5
	c-10.82,6.79-20.32,9.2-20.32,9.2s14.38,2.63,30.24,1.48c1.87,1.35,3.88,2.54,6.04,3.56c18.7,8.76,40.97,0.71,49.74-17.99
	C118.11,78.38,110.05,56.12,91.35,47.35z"/>
<path class="st2" d="M94.09,89.92c-4.81,10.26-17.03,14.68-27.28,9.87c-10.26-4.81-14.68-17.03-9.87-27.29
	c4.81-10.26,17.02-14.68,27.29-9.87C94.49,67.44,98.9,79.66,94.09,89.92z"/>
<g>
	<path class="st1" d="M204.12,95.52c0.25,7.47,6.11,10.69,12.73,10.69c4.84,0,8.32-0.68,11.45-1.87l1.53,7.21
		c-3.56,1.44-8.49,2.55-14.43,2.55c-13.41,0-21.3-8.23-21.3-20.88c0-11.46,6.96-22.23,20.2-22.23c13.41,0,17.82,11.03,17.82,20.11
		c0,1.95-0.17,3.48-0.34,4.41H204.12z M222.28,88.22c0.08-3.82-1.61-10.1-8.57-10.1c-6.45,0-9.17,5.86-9.59,10.1H222.28z"/>
	<path class="st1" d="M278.62,53.01v48.62c0,4.24,0.17,8.82,0.34,11.63h-9.33l-0.42-6.53h-0.17c-2.46,4.58-7.47,7.47-13.49,7.47
		c-9.84,0-17.65-8.4-17.65-21.13c-0.08-13.83,8.57-22.06,18.5-22.06c5.69,0,9.76,2.38,11.62,5.43h0.17V53.01H278.62z M268.19,89.15
		c0-0.85-0.08-1.87-0.25-2.72c-0.93-4.07-4.24-7.38-8.99-7.38c-6.7,0-10.44,5.94-10.44,13.66c0,7.55,3.73,13.07,10.35,13.07
		c4.24,0,7.98-2.88,8.99-7.38c0.25-0.93,0.34-1.95,0.34-3.05V89.15z"/>
	<path class="st1" d="M326.83,100.87c0,4.92,0.17,9,0.34,12.39H318l-0.51-6.28h-0.17c-1.78,2.97-5.86,7.21-13.24,7.21
		c-7.55,0-14.43-4.5-14.43-17.99V71.93h10.44v22.49c0,6.87,2.21,11.29,7.72,11.29c4.16,0,6.87-2.97,7.98-5.6
		c0.34-0.93,0.59-2.04,0.59-3.22V71.93h10.44V100.87z"/>
	<path class="st0" d="M386.82,89.92c-0.34-7.38-0.76-16.29-0.68-24.02h-0.25c-1.87,6.96-4.24,14.68-6.79,21.89l-8.32,24.78h-8.06
		l-7.64-24.44c-2.21-7.3-4.24-15.11-5.77-22.23h-0.17c-0.26,7.47-0.59,16.55-1.02,24.35l-1.27,23h-9.76l3.82-57.19h13.75l7.47,23
		c2.04,6.7,3.82,13.49,5.26,19.86h0.25c1.53-6.2,3.48-13.24,5.69-19.94l7.89-22.91h13.58l3.31,57.19h-10.18L386.82,89.92z"/>
	<path class="st0" d="M440.71,87.88h-21.55v16.8h24.1v8.57h-34.54V56.06h33.26v8.57h-22.83V79.4h21.55V87.88z"/>
	<path class="st0" d="M484.42,87.88h-21.55v16.8h24.1v8.57h-34.54V56.06h33.26v8.57h-22.83V79.4h21.55V87.88z"/>
	<path class="st0" d="M507.93,64.8h-16.29v-8.74h43.19v8.74h-16.46v48.45h-10.44V64.8z"/>
</g>
</svg>
