<?xml version="1.0" encoding="utf-8"?>
<!-- Generator: Adobe Illustrator 28.0.0, SVG Export Plug-In . SVG Version: 6.00 Build 0)  -->
<svg version="1.1" id="Layer_1" xmlns="http://www.w3.org/2000/svg" xmlns:xlink="http://www.w3.org/1999/xlink" x="0px" y="0px"
	 viewBox="0 0 549.01 157.78" style="enable-background:new 0 0 549.01 157.78;" xml:space="preserve">
<style type="text/css">
	.st0{fill:#941B80;}
	.st1{fill:#F29100;}
	.st2{fill:#FFFFFF;}
	.st3{fill:#003C56;}
</style>
<path class="st0" d="M183.16,104.86c0,0-19.36-1.13-39.41-11.91c7.22-29.3-6.96-60.58-35.33-73.89
	C76.12,3.92,37.66,17.84,22.52,50.13c-15.14,32.3-1.23,70.77,31.08,85.91c28.72,13.46,62.31,3.93,80.05-21.06
	C158.53,114.43,183.16,104.86,183.16,104.86z"/>
<path class="st1" d="M96.84,43.69c-18.7-8.76-40.97-0.71-49.74,17.99c-5.55,11.85-4.35,25.13,2.03,35.5
	c-10.82,6.79-20.32,9.2-20.32,9.2s14.38,2.63,30.24,1.48c1.87,1.35,3.88,2.54,6.04,3.56c18.7,8.76,40.97,0.71,49.74-17.99
	C123.6,74.72,115.54,52.46,96.84,43.69z"/>
<path class="st2" d="M99.59,86.26c-4.81,10.26-17.03,14.68-27.28,9.87c-10.26-4.81-14.68-17.03-9.87-27.29
	c4.81-10.26,17.02-14.68,27.29-9.87C99.98,63.78,104.4,76,99.59,86.26z"/>
<g>
	<path class="st3" d="M209.61,91.86c0.25,7.47,6.11,10.69,12.73,10.69c4.84,0,8.32-0.68,11.45-1.87l1.53,7.21
		c-3.56,1.44-8.49,2.55-14.43,2.55c-13.41,0-21.3-8.23-21.3-20.88c0-11.46,6.96-22.23,20.2-22.23c13.41,0,17.82,11.03,17.82,20.11
		c0,1.95-0.17,3.48-0.34,4.41H209.61z M227.77,84.56c0.08-3.82-1.61-10.1-8.57-10.1c-6.45,0-9.17,5.86-9.59,10.1H227.77z"/>
	<path class="st3" d="M284.12,49.34v48.62c0,4.24,0.17,8.82,0.34,11.63h-9.33l-0.42-6.53h-0.17c-2.46,4.58-7.47,7.47-13.49,7.47
		c-9.84,0-17.65-8.4-17.65-21.13c-0.08-13.83,8.57-22.06,18.5-22.06c5.69,0,9.76,2.38,11.62,5.43h0.17V49.34H284.12z M273.68,85.49
		c0-0.85-0.08-1.87-0.25-2.72c-0.93-4.07-4.24-7.38-8.99-7.38c-6.7,0-10.44,5.94-10.44,13.66c0,7.55,3.73,13.07,10.35,13.07
		c4.24,0,7.98-2.88,8.99-7.38c0.25-0.93,0.34-1.95,0.34-3.05V85.49z"/>
	<path class="st3" d="M332.32,97.2c0,4.92,0.17,9,0.34,12.39h-9.16l-0.51-6.28h-0.17c-1.78,2.97-5.86,7.21-13.24,7.21
		c-7.55,0-14.43-4.5-14.43-17.99V68.27h10.44v22.49c0,6.87,2.21,11.29,7.72,11.29c4.16,0,6.87-2.97,7.98-5.6
		c0.34-0.93,0.59-2.04,0.59-3.22V68.27h10.44V97.2z"/>
	<path class="st1" d="M392.32,86.26c-0.34-7.38-0.76-16.29-0.68-24.02h-0.25c-1.87,6.96-4.24,14.68-6.79,21.89l-8.32,24.78h-8.06
		l-7.64-24.44c-2.21-7.3-4.24-15.11-5.77-22.23h-0.17c-0.26,7.47-0.59,16.55-1.02,24.35l-1.27,23h-9.76l3.82-57.19h13.75l7.47,23
		c2.04,6.7,3.82,13.49,5.26,19.86h0.25c1.53-6.2,3.48-13.24,5.69-19.94l7.89-22.91h13.58l3.31,57.19h-10.18L392.32,86.26z"/>
	<path class="st1" d="M446.2,84.22h-21.55v16.8h24.1v8.57h-34.54V52.4h33.26v8.57h-22.83v14.77h21.55V84.22z"/>
	<path class="st1" d="M489.91,84.22h-21.55v16.8h24.1v8.57h-34.54V52.4h33.26v8.57h-22.83v14.77h21.55V84.22z"/>
	<path class="st1" d="M513.42,61.14h-16.29V52.4h43.19v8.74h-16.46v48.45h-10.44V61.14z"/>
</g>
</svg>
